<svg width="31" height="32" viewBox="0 0 31 32" fill="none" xmlns="http://www.w3.org/2000/svg">
<path fill-rule="evenodd" clip-rule="evenodd" d="M31 16.4067C31 24.9672 24.0604 31.9067 15.5 31.9067C6.93958 31.9067 0 24.9672 0 16.4067C0 7.84629 6.93958 0.906738 15.5 0.906738C24.0604 0.906738 31 7.84629 31 16.4067ZM12.7807 9.56073C12.2289 9.44279 11.6188 9.3833 10.9504 9.3833H4.34001V23.4314H11.1489C11.7689 23.4325 12.3876 23.3532 12.9878 23.1957C13.5842 23.0383 14.1149 22.7965 14.5812 22.4679C15.0474 22.1404 15.4182 21.7176 15.6934 21.1994C15.9687 20.681 16.1064 20.0673 16.1064 19.3592C16.1064 18.48 15.8931 17.7287 15.4665 17.1062C15.04 16.4837 14.3939 16.0472 13.5284 15.7979C14.1571 15.4966 14.6332 15.1096 14.9544 14.6372C15.2755 14.1648 15.4368 13.5745 15.4368 12.8666C15.4368 12.2105 15.3289 11.6601 15.1119 11.2135C14.8949 10.7672 14.5899 10.41 14.1968 10.1409C13.8037 9.87185 13.3325 9.67845 12.7807 9.56073ZM11.9152 14.6756C11.5605 14.9374 11.1079 15.0688 10.5574 15.0688L7.43008 15.0713V11.7852H10.3205C10.5884 11.7839 10.855 11.8075 11.1178 11.8535C11.3733 11.8993 11.599 11.9811 11.7961 12.0991C11.9933 12.2168 12.1508 12.3816 12.2685 12.5912C12.3864 12.8008 12.4459 13.0699 12.4459 13.3972C12.4471 13.9876 12.2698 14.4129 11.9152 14.6756ZM11.6002 20.9414C11.3162 21.0009 11.0261 21.0308 10.7347 21.0295L7.43008 21.0308V17.1743H10.7942C11.4626 17.1743 12.0007 17.328 12.4074 17.6368C12.8142 17.9443 13.0175 18.4601 13.0175 19.1805C13.0175 19.5476 12.9543 19.8501 12.8303 20.0858C12.705 20.3214 12.5376 20.5086 12.3281 20.6462C12.1185 20.784 11.8755 20.8819 11.6002 20.9414ZM21.8029 21.3444C21.0155 21.3444 20.4116 21.141 19.9925 20.7343C19.5734 20.3288 19.344 19.6729 19.3056 18.7714H26.6439C26.696 17.9841 26.6302 17.23 26.4467 16.5085C26.2632 15.7867 25.9644 15.1445 25.5514 14.5802C25.1385 14.0159 24.6103 13.5671 23.968 13.2324C23.3244 12.8975 22.5705 12.7302 21.7049 12.7302C20.9312 12.7302 20.2257 12.8677 19.5895 13.1431C18.9534 13.4183 18.4053 13.7952 17.9465 14.2739C17.4877 14.7526 17.1331 15.3192 16.8838 15.9751C16.6346 16.6312 16.5106 17.3391 16.5106 18.0993C16.5106 18.8856 16.6321 19.6071 16.8739 20.2632C17.1157 20.9191 17.4604 21.482 17.9068 21.9545C18.3532 22.4269 18.8976 22.7915 19.5399 23.0469C20.1822 23.3023 20.9039 23.4301 21.7037 23.4301C22.8582 23.4301 23.8415 23.1671 24.6549 22.6426C25.4684 22.1181 26.0722 21.2465 26.4653 20.0263H24.0064C23.9147 20.3412 23.6654 20.6402 23.2587 20.9215C22.852 21.203 22.3671 21.3444 21.8029 21.3444ZM21.6256 14.8331C22.3076 14.8331 22.816 15.0166 23.1508 15.3837C23.4844 15.7508 23.7175 16.289 23.8502 16.9958H19.3056C19.3179 16.7998 19.3614 16.5766 19.4333 16.3275C19.4603 16.2337 19.4947 16.142 19.5365 16.052C19.6059 15.9028 19.6959 15.7586 19.8065 15.6194C19.9838 15.3961 20.2195 15.2101 20.5146 15.0589C20.8084 14.9088 21.1792 14.8331 21.6256 14.8331ZM24.5049 10.0964H18.8269V11.6712H24.5049V10.0964Z" fill="#FCFCFC"/>
</svg>
