<svg width="31" height="31" viewBox="0 0 31 31" fill="none" xmlns="http://www.w3.org/2000/svg">
<path d="M20.2017 22.0892H19.2201V20.4751C19.2225 20.2951 19.2695 20.1183 19.3571 19.9588C19.4448 19.7993 19.5708 19.6617 19.7248 19.5572C20.9991 18.6531 21.9478 17.3959 22.4405 15.9583C22.9333 14.5206 22.9459 12.9732 22.4767 11.5284C22.0074 10.0837 21.0793 8.81264 19.8199 7.88984C18.5605 6.96705 17.0316 6.43781 15.4432 6.37485C13.8242 6.30993 12.225 6.73238 10.8731 7.58205C9.52121 8.43173 8.48555 9.66535 7.91353 11.1073C7.34151 12.5493 7.26228 14.1261 7.68712 15.6134C8.11195 17.1007 9.0192 18.4226 10.2797 19.391C10.421 19.4962 10.5357 19.6302 10.6154 19.7831C10.695 19.936 10.7376 20.104 10.7401 20.2746V22.0892H10.0357C9.97193 22.0891 9.90876 22.1009 9.84982 22.1241C9.79088 22.1472 9.73732 22.1812 9.69223 22.2241C9.64714 22.267 9.6114 22.3179 9.58706 22.374C9.56272 22.4301 9.55027 22.4901 9.55042 22.5508V24.9246C9.55027 24.9852 9.56272 25.0453 9.58706 25.1014C9.6114 25.1574 9.64714 25.2084 9.69223 25.2513C9.73732 25.2941 9.79088 25.3281 9.84982 25.3513C9.90876 25.3744 9.97193 25.3863 10.0357 25.3861H10.6596V27.301C10.6598 27.4234 10.711 27.5407 10.8019 27.6272C10.8929 27.7137 11.0163 27.7624 11.1449 27.7625H12.11C12.2252 28.4426 12.5913 29.0614 13.1426 29.508C13.6939 29.9547 14.3945 30.2 15.1187 30.2C15.8429 30.2 16.5435 29.9547 17.0948 29.508C17.6462 29.0614 18.0123 28.4426 18.1275 27.7625H19.0925C19.2212 27.7624 19.3445 27.7137 19.4355 27.6272C19.5265 27.5407 19.5776 27.4234 19.5778 27.301V25.3861H20.2017C20.2655 25.3863 20.3287 25.3744 20.3876 25.3513C20.4466 25.3281 20.5001 25.2941 20.5452 25.2513C20.5903 25.2084 20.626 25.1574 20.6504 25.1014C20.6747 25.0453 20.6872 24.9852 20.687 24.9246V22.5508C20.6872 22.4901 20.6747 22.4301 20.6504 22.374C20.626 22.3179 20.5903 22.267 20.5452 22.2241C20.5001 22.1812 20.4466 22.1472 20.3876 22.1241C20.3287 22.1009 20.2655 22.0891 20.2017 22.0892ZM8.38851 13.694C8.38826 12.8306 8.57167 11.9761 8.92771 11.182C9.28375 10.3878 9.80506 9.67033 10.4602 9.07279C11.1154 8.47525 11.891 8.00997 12.7402 7.70496C13.5894 7.39995 14.4947 7.26151 15.4016 7.29798C17.136 7.37974 18.7713 8.09105 19.9708 9.28538C21.1703 10.4797 21.8425 12.0661 21.8489 13.7177C21.8487 14.7098 21.6041 15.688 21.1345 16.5739C20.665 17.4597 19.9836 18.2286 19.1452 18.8187C18.8697 19.0085 18.645 19.2574 18.4894 19.5451C18.3338 19.8329 18.2516 20.1515 18.2495 20.4751V22.0892H16.5385V16.2999H17.6672C18.9955 16.2999 19.7913 15.1789 19.7913 14.0923C19.8015 13.6087 19.6304 13.1375 19.3088 12.7629C19.1207 12.5689 18.893 12.4134 18.6396 12.3059C18.3862 12.1984 18.1124 12.1411 17.835 12.1377C17.5575 12.1342 17.2822 12.1846 17.026 12.2858C16.7697 12.3869 16.5378 12.5367 16.3444 12.726C15.5402 13.5489 15.543 14.9626 15.5652 15.3741H14.675C14.6944 14.9626 14.6972 13.5489 13.8958 12.726C13.702 12.537 13.4698 12.3874 13.2133 12.2864C12.9569 12.1854 12.6814 12.1351 12.4039 12.1386C12.1263 12.142 11.8524 12.1992 11.5988 12.3065C11.3451 12.4138 11.1171 12.5691 10.9286 12.7629C10.607 13.1375 10.436 13.6087 10.4461 14.0923C10.4461 15.1789 11.242 16.2999 12.5703 16.2999H13.6989V22.0892H11.7106V20.2746C11.7087 19.9663 11.6339 19.6624 11.4918 19.3852C11.3498 19.1081 11.144 18.8649 10.8898 18.6736C10.1072 18.0749 9.47614 17.3165 9.04319 16.4546C8.61024 15.5927 8.3865 14.6492 8.38851 13.694ZM16.5358 15.3767C16.508 14.9626 16.5524 13.8681 17.0571 13.3511C17.2602 13.1645 17.532 13.0608 17.8144 13.0623C18.0969 13.0638 18.3675 13.1703 18.5684 13.359C18.7412 13.5673 18.8307 13.8271 18.8208 14.0923C18.8208 14.7147 18.4159 15.3767 17.6672 15.3767H16.5358ZM15.568 16.2972V22.0892H14.6695V16.2972H15.568ZM13.7017 15.3767H12.5703C11.8216 15.3767 11.4167 14.7147 11.4167 14.0923C11.4068 13.8271 11.4962 13.5673 11.669 13.359C11.8695 13.1694 12.1403 13.0623 12.423 13.0608C12.7057 13.0593 12.9777 13.1636 13.1804 13.3511C13.685 13.8681 13.7294 14.9626 13.7017 15.3767ZM15.1215 29.2765C14.6541 29.2767 14.2002 29.1275 13.8326 28.853C13.465 28.5784 13.2051 28.1944 13.0944 27.7625H17.1431C17.0332 28.1939 16.7742 28.5776 16.4076 28.8521C16.041 29.1267 15.5881 29.2761 15.1215 29.2765ZM18.6072 26.8394H11.6302V25.3861H18.6072V26.8394ZM19.7164 24.463H10.521V23.0124H19.7164V24.463Z" fill="#6E476A"/>
<path d="M2.96634 13.7594H0.485285C0.35658 13.7594 0.233145 13.808 0.142137 13.8946C0.051128 13.9812 0 14.0986 0 14.221C0 14.3434 0.051128 14.4608 0.142137 14.5473C0.233145 14.6339 0.35658 14.6825 0.485285 14.6825H2.96773C3.09643 14.6825 3.21987 14.6339 3.31087 14.5473C3.40188 14.4608 3.45301 14.3434 3.45301 14.221C3.45301 14.0986 3.40188 13.9812 3.31087 13.8946C3.21987 13.808 3.09643 13.7594 2.96773 13.7594H2.96634Z" fill="#6E476A"/>
<path d="M6.14482 22.027L4.31599 23.7665C4.26965 23.8091 4.23269 23.86 4.20727 23.9163C4.18185 23.9726 4.16847 24.0332 4.16793 24.0945C4.16738 24.1558 4.17967 24.2166 4.20408 24.2733C4.22849 24.33 4.26454 24.3815 4.31011 24.4249C4.35569 24.4682 4.40988 24.5025 4.46952 24.5256C4.52917 24.5488 4.59307 24.5605 4.65751 24.56C4.72194 24.5594 4.78562 24.5467 4.84482 24.5225C4.90402 24.4983 4.95756 24.4631 5.00232 24.419L6.83115 22.6796C6.91953 22.5925 6.96842 22.4759 6.96729 22.3549C6.96616 22.2338 6.9151 22.1181 6.8251 22.0325C6.73511 21.947 6.61338 21.8984 6.48614 21.8974C6.3589 21.8964 6.23633 21.9429 6.14482 22.027Z" fill="#6E476A"/>
<path d="M23.8622 22.2428C23.8171 22.1999 23.7636 22.1659 23.7047 22.1427C23.6458 22.1195 23.5827 22.1076 23.519 22.1076C23.4553 22.1076 23.3922 22.1195 23.3333 22.1427C23.2744 22.1659 23.2209 22.1999 23.1758 22.2428C23.1308 22.2857 23.095 22.3366 23.0706 22.3926C23.0462 22.4486 23.0337 22.5086 23.0337 22.5692C23.0337 22.6298 23.0462 22.6898 23.0706 22.7458C23.095 22.8018 23.1308 22.8527 23.1758 22.8956L24.9866 24.6176C25.0317 24.6605 25.0852 24.6945 25.144 24.7176C25.2029 24.7408 25.266 24.7528 25.3297 24.7528C25.3934 24.7528 25.4565 24.7408 25.5153 24.7176C25.5742 24.6945 25.6276 24.6605 25.6727 24.6176C25.7177 24.5748 25.7535 24.5239 25.7779 24.4679C25.8022 24.412 25.8148 24.352 25.8148 24.2914C25.8148 24.2308 25.8022 24.1708 25.7779 24.1148C25.7535 24.0588 25.7177 24.008 25.6727 23.9651L23.8622 22.2428Z" fill="#6E476A"/>
<path d="M29.7147 14.0401H27.255C27.1263 14.0401 27.0029 14.0887 26.9119 14.1753C26.8208 14.2619 26.7697 14.3793 26.7697 14.5017C26.7697 14.6241 26.8208 14.7415 26.9119 14.828C27.0029 14.9146 27.1263 14.9632 27.255 14.9632H29.7147C29.8434 14.9632 29.9668 14.9146 30.0579 14.828C30.1489 14.7415 30.2 14.6241 30.2 14.5017C30.2 14.3793 30.1489 14.2619 30.0579 14.1753C29.9668 14.0887 29.8434 14.0401 29.7147 14.0401Z" fill="#6E476A"/>
<path d="M25.1963 4.30359L23.5308 5.88795C23.4424 5.97502 23.3935 6.09163 23.3947 6.21265C23.3958 6.33367 23.4469 6.44943 23.5369 6.53499C23.6269 6.62055 23.7486 6.66907 23.8758 6.67009C24.0031 6.67112 24.1256 6.62457 24.2171 6.54048L25.8826 4.95638C25.9737 4.86982 26.0248 4.75241 26.0248 4.62999C26.0248 4.50757 25.9737 4.39016 25.8826 4.30359C25.7916 4.21703 25.6682 4.1684 25.5395 4.1684C25.4108 4.1684 25.2873 4.21703 25.1963 4.30359Z" fill="#6E476A"/>
<path d="M15.2468 3.13206C15.3755 3.13199 15.4989 3.08334 15.5899 2.99679C15.6809 2.91025 15.732 2.79289 15.7321 2.67049V0.461567C15.7321 0.339152 15.681 0.22175 15.59 0.13519C15.499 0.0486293 15.3755 0 15.2468 0C15.1181 0 14.9947 0.0486293 14.9037 0.13519C14.8127 0.22175 14.7615 0.339152 14.7615 0.461567V2.67155C14.7618 2.79378 14.8131 2.91091 14.9041 2.99725C14.995 3.08358 15.1183 3.13206 15.2468 3.13206Z" fill="#6E476A"/>
<path d="M5.21089 4.10536C5.16585 4.06251 5.11237 4.02852 5.05351 4.00534C4.99465 3.98215 4.93157 3.97021 4.86787 3.97021C4.80416 3.97021 4.74108 3.98215 4.68222 4.00534C4.62336 4.02852 4.56989 4.06251 4.52484 4.10536C4.47979 4.1482 4.44406 4.19907 4.41968 4.25505C4.3953 4.31103 4.38275 4.37103 4.38275 4.43162C4.38275 4.49221 4.3953 4.55221 4.41968 4.60819C4.44406 4.66417 4.47979 4.71504 4.52484 4.75788L6.20392 6.3549C6.2949 6.44157 6.41835 6.49032 6.54711 6.49042C6.67588 6.49052 6.79941 6.44196 6.89053 6.35543C6.98166 6.2689 7.03291 6.15148 7.03301 6.02901C7.03312 5.90654 6.98207 5.78905 6.89109 5.70238L5.21089 4.10536Z" fill="#6E476A"/>
</svg>
