<svg width="36" height="36" viewBox="0 0 36 36" fill="none" xmlns="http://www.w3.org/2000/svg">
<mask id="mask0_43_204" style="mask-type:luminance" maskUnits="userSpaceOnUse" x="0" y="0" width="36" height="36">
<path d="M36 0H0V36H36V0Z" fill="white"/>
</mask>
<g mask="url(#mask0_43_204)">
<path fill-rule="evenodd" clip-rule="evenodd" d="M18 0C13.1112 0 12.4992 0.0204 10.5792 0.108C8.6628 0.1956 7.3536 0.5004 6.2088 0.9456C5.0088 1.3968 3.9204 2.1048 3.0204 3.0216C2.10506 3.92056 1.39663 5.0082 0.9444 6.2088C0.5016 7.3536 0.1956 8.664 0.108 10.5804C0.0216 12.4992 0 13.11 0 18C0 22.89 0.0204 23.5008 0.108 25.4208C0.1956 27.3372 0.5004 28.6464 0.9456 29.7912C1.3968 30.9912 2.1048 32.0796 3.0216 32.9796C3.92058 33.895 5.00822 34.6034 6.2088 35.0556C7.3536 35.4996 8.6628 35.8044 10.5792 35.892C12.4992 35.9796 13.1112 36 18 36C22.8888 36 23.5008 35.9796 25.4208 35.892C27.3372 35.8044 28.6464 35.4996 29.7912 35.0544C30.9912 34.6032 32.0796 33.8952 32.9796 32.9784C33.895 32.0794 34.6034 30.9918 35.0556 29.7912C35.4996 28.6464 35.8044 27.3372 35.892 25.4208C35.9796 23.5008 36 22.8888 36 18C36 13.1112 35.9796 12.4992 35.892 10.5792C35.8044 8.6628 35.4996 7.3536 35.0544 6.2088C34.6024 5.00768 33.894 3.91958 32.9784 3.0204C32.0794 2.10506 30.9918 1.39663 29.7912 0.9444C28.6464 0.5016 27.336 0.1956 25.4196 0.108C23.5008 0.0216 22.89 0 18 0ZM18 3.2436C22.806 3.2436 23.376 3.2616 25.2744 3.348C27.0288 3.4284 27.9816 3.72 28.6164 3.9684C29.4564 4.2936 30.0564 4.6848 30.6864 5.3136C31.3164 5.9436 31.7064 6.5436 32.0316 7.3836C32.2788 8.0184 32.5716 8.9712 32.652 10.7256C32.7384 12.624 32.7564 13.194 32.7564 18C32.7564 22.806 32.7384 23.376 32.652 25.2744C32.5716 27.0288 32.28 27.9816 32.0316 28.6164C31.7436 29.3982 31.2838 30.1056 30.6864 30.6864C30.1056 31.284 29.3984 31.7436 28.6164 32.0316C27.9816 32.2788 27.0288 32.5716 25.2744 32.652C23.376 32.7384 22.8072 32.7564 18 32.7564C13.1928 32.7564 12.624 32.7384 10.7256 32.652C8.9712 32.5716 8.0184 32.28 7.3836 32.0316C6.60174 31.7436 5.8944 31.2838 5.3136 30.6864C4.71622 30.1056 4.25656 29.3982 3.9684 28.6164C3.7212 27.9816 3.4284 27.0288 3.348 25.2744C3.2616 23.376 3.2436 22.806 3.2436 18C3.2436 13.194 3.2616 12.624 3.348 10.7256C3.4284 8.9712 3.72 8.0184 3.9684 7.3836C4.2936 6.5436 4.6848 5.9436 5.3136 5.3136C5.89432 4.71606 6.6017 4.25638 7.3836 3.9684C8.0184 3.7212 8.9712 3.4284 10.7256 3.348C12.624 3.2616 13.194 3.2436 18 3.2436Z" fill="#A6A6A6"/>
<path fill-rule="evenodd" clip-rule="evenodd" d="M18 24.006C17.2113 24.006 16.4303 23.8508 15.7016 23.5488C14.973 23.247 14.3109 22.8046 13.7532 22.247C13.1955 21.6892 12.7531 21.0272 12.4512 20.2984C12.1494 19.5698 11.994 18.7888 11.994 18.0001C11.994 17.2113 12.1494 16.4304 12.4512 15.7017C12.7531 14.973 13.1955 14.3109 13.7532 13.7532C14.3109 13.1955 14.973 12.7531 15.7016 12.4512C16.4303 12.1494 17.2113 11.9941 18 11.9941C19.5929 11.9941 21.1206 12.6268 22.247 13.7532C23.3732 14.8795 24.006 16.4072 24.006 18.0001C24.006 19.593 23.3732 21.1206 22.247 22.247C21.1206 23.3732 19.5929 24.006 18 24.006ZM18 8.74807C15.5463 8.74807 13.193 9.72283 11.4579 11.4579C9.72281 13.193 8.74805 15.5463 8.74805 18.0001C8.74805 20.4538 9.72281 22.8072 11.4579 24.5422C13.193 26.2774 15.5463 27.252 18 27.252C20.4538 27.252 22.8072 26.2774 24.5422 24.5422C26.2772 22.8072 27.252 20.4538 27.252 18.0001C27.252 15.5463 26.2772 13.193 24.5422 11.4579C22.8072 9.72283 20.4538 8.74807 18 8.74807ZM29.9436 8.58007C29.9436 9.16011 29.7132 9.71637 29.303 10.1265C28.893 10.5367 28.3366 10.7671 27.7566 10.7671C27.1766 10.7671 26.6204 10.5367 26.2102 10.1265C25.8 9.71637 25.5696 9.16011 25.5696 8.58007C25.5696 8.00005 25.8 7.44377 26.2102 7.03363C26.6204 6.62349 27.1766 6.39307 27.7566 6.39307C28.3366 6.39307 28.893 6.62349 29.303 7.03363C29.7132 7.44377 29.9436 8.00005 29.9436 8.58007Z" fill="#A6A6A6"/>
</g>
</svg>
