<svg width="37" height="36" viewBox="0 0 37 36" fill="none" xmlns="http://www.w3.org/2000/svg">
<path d="M37 2.64706V33.353C37 34.055 36.7135 34.7282 36.2031 35.2246C35.6929 35.7212 35.001 36 34.2795 36H2.72059C1.99904 36 1.30705 35.7212 0.796842 35.2246C0.286633 34.7282 0 34.055 0 33.353V2.64706C0 1.94502 0.286633 1.27173 0.796842 0.775306C1.30705 0.278886 1.99904 0 2.72059 0H34.2795C35.001 0 35.6929 0.278886 36.2031 0.775306C36.7135 1.27173 37 1.94502 37 2.64706ZM10.8824 13.7647H5.44118V30.7058H10.8824V13.7647ZM11.3721 7.94118C11.3749 7.54072 11.2967 7.14364 11.1418 6.7726C10.987 6.40156 10.7585 6.06382 10.4695 5.7787C10.1805 5.49356 9.83659 5.2666 9.45743 5.1108C9.07828 4.95498 8.67128 4.87336 8.25972 4.87058H8.16177C7.32477 4.87058 6.52205 5.1941 5.93022 5.76994C5.33838 6.34578 5.00587 7.1268 5.00587 7.94118C5.00587 8.75554 5.33838 9.53656 5.93022 10.1124C6.52205 10.6883 7.32477 11.0118 8.16177 11.0118C8.57337 11.0216 8.98294 10.9525 9.36708 10.8083C9.75121 10.664 10.1024 10.4476 10.4005 10.1713C10.6986 9.89498 10.9379 9.56424 11.1046 9.19794C11.2713 8.83164 11.3622 8.43696 11.3721 8.03648V7.94118ZM31.5587 20.4142C31.5587 15.3212 28.2287 13.3412 24.9205 13.3412C23.8375 13.2884 22.7589 13.5129 21.7928 13.9922C20.8265 14.4715 20.0064 15.189 19.4141 16.0729H19.2618V13.7647H14.1471V30.7058H19.5882V21.6952C19.5096 20.7724 19.8083 19.8567 20.4196 19.1469C21.031 18.4372 21.9054 17.9908 22.8528 17.9047H23.0596C24.79 17.9047 26.0741 18.9635 26.0741 21.6318V30.7058H31.5154L31.5587 20.4142Z" fill="#A6A6A6"/>
</svg>
