<svg width="31" height="31" viewBox="0 0 31 31" fill="none" xmlns="http://www.w3.org/2000/svg">
<path d="M13.8606 17.9516L9.06398 12.8153C8.75356 12.488 8.34163 12.313 7.91794 12.3285C7.49424 12.344 7.09313 12.5488 6.80198 12.8981C6.51083 13.2474 6.35324 13.713 6.36354 14.1935C6.37384 14.674 6.55121 15.1304 6.85699 15.4632L10.4169 19.2773L6.85699 23.0878C6.54687 23.4197 6.36571 23.8776 6.35337 24.3608C6.34102 24.8441 6.49851 25.3131 6.79117 25.6647C7.08384 26.0163 7.48771 26.2217 7.91395 26.2357C8.34018 26.2496 8.75386 26.0711 9.06398 25.7393L13.8606 20.5995C14.0201 20.4296 14.1471 20.2245 14.234 19.9968C14.3209 19.7691 14.3657 19.5236 14.3657 19.2755C14.3657 19.0274 14.3209 18.782 14.234 18.5543C14.1471 18.3266 14.0201 18.1214 13.8606 17.9516ZM13.1259 19.718L8.32933 24.8543C8.2242 24.9614 8.08678 25.0187 7.94549 25.0141C7.80419 25.0096 7.66984 24.9437 7.5702 24.83C7.47307 24.713 7.42079 24.5571 7.4248 24.3964C7.42882 24.2358 7.4888 24.0834 7.59163 23.9728L11.5648 19.718C11.6179 19.6614 11.6602 19.5931 11.6891 19.5173C11.7181 19.4416 11.7331 19.3599 11.7332 19.2773C11.7328 19.1942 11.7177 19.1121 11.6888 19.0358C11.6598 18.9595 11.6177 18.8905 11.5648 18.8331L7.59163 14.5817C7.54038 14.5268 7.49917 14.461 7.47035 14.388C7.44154 14.315 7.42568 14.2364 7.42369 14.1564C7.4217 14.0765 7.43362 13.9969 7.45876 13.9222C7.4839 13.8475 7.52176 13.7792 7.5702 13.7211C7.61864 13.663 7.6767 13.6162 7.74106 13.5836C7.80543 13.5509 7.87484 13.5329 7.94533 13.5307C8.01582 13.5284 8.08602 13.5419 8.1519 13.5704C8.21779 13.5989 8.27808 13.6418 8.32933 13.6968L13.1259 18.8365C13.1791 18.893 13.2215 18.9613 13.2504 19.0371C13.2794 19.1129 13.2943 19.1947 13.2943 19.2773C13.2943 19.3599 13.2794 19.4416 13.2504 19.5174C13.2215 19.5932 13.1791 19.6615 13.1259 19.718Z" fill="#6C4765"/>
<path d="M22.8478 17.6183H17.0471C16.6209 17.6183 16.2122 17.8103 15.9108 18.152C15.6094 18.4937 15.4401 18.9571 15.4401 19.4403C15.4401 19.9236 15.6094 20.387 15.9108 20.7287C16.2122 21.0704 16.6209 21.2623 17.0471 21.2623H22.8478C23.274 21.2623 23.6827 21.0704 23.9841 20.7287C24.2855 20.387 24.4548 19.9236 24.4548 19.4403C24.4548 18.9571 24.2855 18.4937 23.9841 18.152C23.6827 17.8103 23.274 17.6183 22.8478 17.6183ZM22.8478 20.0477H17.0471C16.9051 20.0477 16.7688 19.9837 16.6683 19.8698C16.5679 19.7559 16.5114 19.6014 16.5114 19.4403C16.5114 19.2793 16.5679 19.1248 16.6683 19.0109C16.7688 18.897 16.9051 18.833 17.0471 18.833H22.8478C22.9898 18.833 23.1261 18.897 23.2265 19.0109C23.327 19.1248 23.3834 19.2793 23.3834 19.4403C23.3834 19.6014 23.327 19.7559 23.2265 19.8698C23.1261 19.9837 22.9898 20.0477 22.8478 20.0477Z" fill="#6C4765"/>
<path d="M27.6199 0.311157H3.18686C2.42251 0.312625 1.68983 0.657527 1.14936 1.2703C0.608882 1.88307 0.304672 2.71375 0.303377 3.58034V29.9038C0.303215 29.9836 0.316961 30.0627 0.343824 30.1365C0.370687 30.2102 0.410139 30.2772 0.459913 30.3337C0.509688 30.3901 0.568804 30.4348 0.633869 30.4653C0.698933 30.4958 0.768663 30.5113 0.839055 30.5112H29.9677C30.0381 30.5113 30.1078 30.4958 30.1729 30.4653C30.2379 30.4348 30.2971 30.3901 30.3468 30.3337C30.3966 30.2772 30.4361 30.2102 30.4629 30.1365C30.4898 30.0627 30.5035 29.9836 30.5034 29.9038V3.58034C30.5021 2.71375 30.1979 1.88307 29.6574 1.2703C29.1169 0.657527 28.3842 0.312625 27.6199 0.311157ZM29.432 29.2965H1.37473V7.31803H29.432V29.2965ZM29.432 6.10337H1.37473V3.58034C1.37522 3.03561 1.56629 2.51336 1.90603 2.12818C2.24576 1.74301 2.7064 1.52637 3.18686 1.52582H27.6199C28.1004 1.52637 28.561 1.74301 28.9007 2.12818C29.2405 2.51336 29.4315 3.03561 29.432 3.58034V6.10337Z" fill="#6C4765"/>
<path d="M3.80518 2.1366C3.48371 2.1366 3.16945 2.24468 2.90216 2.44717C2.63486 2.64966 2.42653 2.93747 2.30351 3.2742C2.18048 3.61093 2.1483 3.98146 2.21101 4.33893C2.27373 4.6964 2.42853 5.02476 2.65585 5.28248C2.88316 5.54021 3.17278 5.71572 3.48808 5.78682C3.80338 5.85793 4.13019 5.82144 4.42719 5.68196C4.7242 5.54248 4.97805 5.30628 5.15665 5.00323C5.33525 4.70018 5.43058 4.34389 5.43058 3.97941C5.42961 3.49101 5.25805 3.02292 4.95344 2.67756C4.64883 2.3322 4.23596 2.1377 3.80518 2.1366ZM3.80518 4.60757C3.6956 4.60757 3.58848 4.57073 3.49737 4.50171C3.40626 4.43268 3.33524 4.33458 3.29331 4.2198C3.25138 4.10502 3.2404 3.97872 3.26178 3.85687C3.28316 3.73502 3.33593 3.62309 3.41341 3.53524C3.4909 3.44739 3.58962 3.38757 3.69709 3.36333C3.80457 3.33909 3.91596 3.35153 4.0172 3.39908C4.11844 3.44662 4.20497 3.52713 4.26585 3.63043C4.32673 3.73373 4.35922 3.85518 4.35922 3.97941C4.35858 4.14579 4.3 4.30514 4.19624 4.42278C4.09247 4.54042 3.95192 4.60684 3.80518 4.60757Z" fill="#6C4765"/>
<path d="M7.43555 2.1366C7.11408 2.1366 6.79982 2.24468 6.53253 2.44717C6.26523 2.64966 6.0569 2.93747 5.93388 3.2742C5.81085 3.61093 5.77867 3.98146 5.84138 4.33893C5.9041 4.6964 6.0589 5.02476 6.28622 5.28248C6.51354 5.54021 6.80315 5.71572 7.11845 5.78682C7.43375 5.85793 7.76056 5.82144 8.05756 5.68196C8.35457 5.54248 8.60842 5.30628 8.78702 5.00323C8.96562 4.70018 9.06095 4.34389 9.06095 3.97941C9.05998 3.49101 8.88842 3.02292 8.58381 2.67756C8.2792 2.3322 7.86634 2.1377 7.43555 2.1366ZM7.43555 4.60757C7.32597 4.60757 7.21885 4.57073 7.12774 4.50171C7.03663 4.43268 6.96562 4.33458 6.92368 4.2198C6.88175 4.10502 6.87077 3.97872 6.89215 3.85687C6.91353 3.73502 6.9663 3.62309 7.04378 3.53524C7.12127 3.44739 7.21999 3.38757 7.32746 3.36333C7.43494 3.33909 7.54634 3.35153 7.64757 3.39908C7.74881 3.44662 7.83534 3.52713 7.89622 3.63043C7.9571 3.73373 7.98959 3.85518 7.98959 3.97941C7.98895 4.14579 7.93037 4.30514 7.82661 4.42278C7.72284 4.54042 7.58229 4.60684 7.43555 4.60757Z" fill="#6C4765"/>
<path d="M11.2006 2.1366C10.8791 2.1366 10.5649 2.24468 10.2976 2.44717C10.0303 2.64966 9.82195 2.93747 9.69892 3.2742C9.5759 3.61093 9.54371 3.98146 9.60643 4.33893C9.66914 4.6964 9.82395 5.02476 10.0513 5.28248C10.2786 5.54021 10.5682 5.71572 10.8835 5.78682C11.1988 5.85793 11.5256 5.82144 11.8226 5.68196C12.1196 5.54248 12.3735 5.30628 12.5521 5.00323C12.7307 4.70018 12.826 4.34389 12.826 3.97941C12.825 3.49101 12.6535 3.02292 12.3489 2.67756C12.0442 2.3322 11.6314 2.1377 11.2006 2.1366ZM11.2006 4.60757C11.091 4.60757 10.9839 4.57073 10.8928 4.50171C10.8017 4.43268 10.7307 4.33458 10.6887 4.2198C10.6468 4.10502 10.6358 3.97872 10.6572 3.85687C10.6786 3.73502 10.7313 3.62309 10.8088 3.53524C10.8863 3.44739 10.985 3.38757 11.0925 3.36333C11.2 3.33909 11.3114 3.35153 11.4126 3.39908C11.5139 3.44662 11.6004 3.52713 11.6613 3.63043C11.7221 3.73373 11.7546 3.85518 11.7546 3.97941C11.754 4.14579 11.6954 4.30514 11.5917 4.42278C11.4879 4.54042 11.3473 4.60684 11.2006 4.60757Z" fill="#6C4765"/>
</svg>
