<svg width="31" height="31" viewBox="0 0 31 31" fill="none" xmlns="http://www.w3.org/2000/svg">
<path d="M30.2147 3.64964L27.5833 1.0184C27.3575 0.793985 27.052 0.66803 26.7337 0.66803C26.4153 0.66803 26.1098 0.793985 25.884 1.0184L22.988 3.91717H22.9851L21.2945 5.60763L3.00731 23.8969H3.00437V23.8999L2.6839 24.2203C2.63119 24.2712 2.59095 24.3336 2.5663 24.4026L0.399471 30.1708C0.363868 30.2635 0.35603 30.3646 0.376913 30.4617C0.397797 30.5588 0.446498 30.6477 0.517073 30.7176C0.587231 30.7868 0.67563 30.8346 0.771944 30.8554C0.868258 30.8762 0.968509 30.8692 1.06099 30.8352L6.8294 28.6655C6.89893 28.6402 6.96213 28.6001 7.01462 28.5479L25.6252 9.93815C25.6282 9.93521 25.6311 9.92933 25.6341 9.92639L27.3158 8.24475L30.2147 5.34598C30.4388 5.12057 30.5646 4.81565 30.5646 4.49781C30.5646 4.17996 30.4388 3.87504 30.2147 3.64964ZM21.6591 6.69834L22.7322 7.77142L5.16826 25.3346L4.09513 24.2615L21.6591 6.69834ZM1.76072 29.4711L2.31933 27.9834L3.2484 28.9125L1.76072 29.4711ZM4.30682 28.5156L2.71624 26.9251L3.4248 25.0435L4.79781 26.4194C4.80075 26.4194 4.80075 26.4253 4.80369 26.4253L4.81251 26.4341L6.18846 27.8071L4.30682 28.5156ZM6.97052 27.1367L5.8974 26.0607L23.4614 8.50052L24.5345 9.5736L6.97052 27.1367ZM25.2607 8.84449L22.3882 5.97218L23.3496 5.00788L26.2221 7.88314L25.2607 8.84449ZM29.4855 4.61981L26.9512 7.15403L24.0788 4.28172L26.6131 1.7475C26.6289 1.73164 26.6477 1.71906 26.6684 1.71047C26.6891 1.70189 26.7113 1.69747 26.7337 1.69747C26.756 1.69747 26.7782 1.70189 26.7989 1.71047C26.8196 1.71906 26.8384 1.73164 26.8542 1.7475L29.4855 4.37874C29.5017 4.39433 29.5145 4.41308 29.5231 4.43381C29.5317 4.45455 29.5359 4.47683 29.5355 4.49928C29.5357 4.52169 29.5313 4.5439 29.5227 4.5646C29.5142 4.5853 29.5015 4.60407 29.4855 4.61981Z" fill="#6D4866"/>
</svg>
